<svg xmlns="http://www.w3.org/2000/svg" width="100mm" height="80mm" viewBox="0 0 100 80"><defs><marker id="a" orient="auto" refX="0" refY="0" style="overflow:visible"><path d="M8.719 4.034-2.207.016 8.719-4.002c-1.746 2.372-1.736 5.618 0 8.036z" style="fill:context-stroke;fill-rule:evenodd;stroke:context-stroke;stroke-width:.625;stroke-linejoin:round" transform="scale(.6)"/></marker></defs><g transform="translate(.279 -7.535)"><path d="M46.213 78.56c-25.3 0-42.169-7.202-42.169-15.989 0-4.267 4.604-8.22 12.477-11.077" style="opacity:1;fill:none;fill-rule:evenodd;stroke:gray;stroke-width:3.43958;stroke-linecap:round;stroke-linejoin:round;stroke-miterlimit:4;stroke-dasharray:none;stroke-opacity:.7;marker-start:url(#a)"/><path d="M83.383 51.615c7.803 2.853 12.28 6.71 12.28 10.956v0c0 7.289-13.778 13.416-34.447 15.549" style="opacity:1;fill:none;fill-rule:evenodd;stroke:gray;stroke-width:3.43958;stroke-linecap:round;stroke-linejoin:round;stroke-miterlimit:4;stroke-dasharray:none;stroke-opacity:.7"/><path d="M38.976 20.909c-5.26 1.035-16.592-1.204-20.457 1.499-3.28 2.293-2.07 34.968.214 37.87 3.413 4.335 58.768 4.665 62.71.52 2.906-3.056 2.545-35.784-.084-38.361-2.722-2.67-13.619-.683-20.99-1.535-3.15-.364-1.744-7.245-4.755-8.236-3.12-1.027-7.736-1.059-10.81 0-3.212 1.108-2.494 7.587-5.828 8.243z" style="fill:none;stroke:gray;stroke-width:3.43958;stroke-linecap:butt;stroke-linejoin:miter;stroke-miterlimit:4;stroke-dasharray:none;stroke-opacity:.7"/><circle cx="50.023" cy="41.539" r="12.531" style="opacity:1;fill:none;fill-rule:evenodd;stroke:gray;stroke-width:3.43958;stroke-linecap:round;stroke-linejoin:round;stroke-miterlimit:4;stroke-dasharray:none;stroke-opacity:.7"/></g></svg>