<svg xmlns="http://www.w3.org/2000/svg" width="100" height="100" viewBox="0 0 100.007 99.942"><g style="display:inline"><path d="M340.106 108.86s23.486.295 26.442-4.278c2.955-4.573 5.91-8.804 4.433-26.947-.317-.231 15.264-6.94 31.031-.378 0 0-1.478 16.262 1.478 22.9 4.433 6.637 4.825 7.67 29.945 8.703 0 0 4.938 15.488-.972 30.386 0 0-8.286-.885-20.107 1.327-13.3 2.213-10.344 25.814-10.344 28.026 0 0-13.3 6.195-31.031 0 0 0 2.955-19.618-4.433-25.813 0 0-1.478-3.983-25.121-3.688 0 0-5.754-11.358-1.321-30.238z" style="fill:none;fill-rule:evenodd;stroke:#dae3e8;stroke-width:3.05809665;stroke-linecap:butt;stroke-linejoin:miter;stroke-miterlimit:4;stroke-dasharray:none;stroke-opacity:.39215686" transform="translate(-336.9 -72.888)"/></g></svg>